<svg width="220" height="60" viewBox="0 0 220 60" fill="none" xmlns="http://www.w3.org/2000/svg">
<path fill-rule="evenodd" clip-rule="evenodd" d="M65.4141 18.1983H67.1511V20.0513H67.1891C67.4401 19.3183 68.2121 17.9863 70.0271 17.9863V19.8773C68.4631 19.8773 67.1511 20.6693 67.1511 23.4873V27.3863H65.4141V18.1983Z" fill="#1A1919"/>
<path fill-rule="evenodd" clip-rule="evenodd" d="M76.453 20.9593C76.453 20.3793 76.105 19.3363 74.774 19.3363C73.345 19.3363 72.94 20.5533 72.94 20.9593H76.453ZM77.978 27.2903C77.225 27.4633 76.684 27.5983 75.681 27.5983C72.901 27.5983 71.125 25.9573 71.125 22.3483C71.125 18.4113 73.692 17.9863 74.87 17.9863C77.109 17.9863 78.19 19.5103 78.19 21.6723V22.1173H72.862C72.862 23.8353 73.731 26.2483 76.24 26.2483C77.032 26.2483 77.572 26.0543 77.978 25.9193V27.2903Z" fill="#1A1919"/>
<path fill-rule="evenodd" clip-rule="evenodd" d="M83.3817 26.2474C84.7907 26.2474 85.3697 24.2964 85.3697 22.7724C85.3697 21.1694 84.9067 19.3354 83.3627 19.3354C82.0117 19.3354 81.5667 20.8614 81.5667 22.7924C81.5667 24.1814 81.7607 26.2474 83.3817 26.2474ZM85.3697 25.9764H85.3317C85.1387 26.4984 84.3857 27.5974 82.7837 27.5974C80.5437 27.5974 79.6367 25.5714 79.6367 22.9464C79.6367 19.8964 80.7957 17.9854 82.8797 17.9854C84.4047 17.9854 85.1187 18.9314 85.3317 19.4714H85.3697V14.0664H87.1067V27.3854H85.3697V25.9764Z" fill="#1A1919"/>
<path fill-rule="evenodd" clip-rule="evenodd" d="M92.8583 26.2474C94.2673 26.2474 94.8463 24.2964 94.8463 22.7724C94.8463 21.1694 94.3833 19.3354 92.8393 19.3354C91.4883 19.3354 91.0443 20.8614 91.0443 22.7924C91.0443 24.1814 91.2373 26.2474 92.8583 26.2474ZM94.8463 25.9764H94.8083C94.6153 26.4984 93.8623 27.5974 92.2603 27.5974C90.0213 27.5974 89.1133 25.5714 89.1133 22.9464C89.1133 19.8964 90.2723 17.9854 92.3563 17.9854C93.8813 17.9854 94.5953 18.9314 94.8083 19.4714H94.8463V14.0664H96.5843V27.3854H94.8463V25.9764Z" fill="#D8232A"/>
<path fill-rule="evenodd" clip-rule="evenodd" d="M102.779 26.2483C104.652 26.2483 104.903 24.2593 104.903 22.7933C104.903 21.3063 104.652 19.3363 102.779 19.3363C100.869 19.3363 100.637 21.3063 100.637 22.7933C100.637 24.2593 100.869 26.2483 102.779 26.2483ZM98.707 22.7933C98.707 19.8583 100 17.9863 102.779 17.9863C105.54 17.9863 106.833 19.8583 106.833 22.7933C106.833 25.6883 105.54 27.5983 102.779 27.5983C100 27.5983 98.707 25.6883 98.707 22.7933Z" fill="#D8232A"/>
<path fill-rule="evenodd" clip-rule="evenodd" d="M113.837 27.4621C113.393 27.5591 112.93 27.5971 112.467 27.5971C110.247 27.5971 109.707 26.6131 109.707 25.3591V19.5481H108.066V18.1971H109.707V16.0361L111.444 14.9551V18.1971H113.992V19.5481H111.444V24.4511C111.444 25.2811 111.56 26.2471 112.911 26.2471C113.22 26.2471 113.586 26.1891 113.837 26.1111V27.4621Z" fill="#D8232A"/>
<path fill-rule="evenodd" clip-rule="evenodd" d="M124.26 23.2753C122.89 23.2753 121.52 23.8933 121.52 25.0703C121.52 25.7843 122.002 26.2483 122.523 26.2483C123.72 26.2483 124.608 24.8773 124.608 23.7953V23.2753H124.26ZM124.608 26.2483H124.569C124.338 26.7493 123.604 27.5983 122.195 27.5983C120.477 27.5983 119.59 26.5563 119.59 25.1273C119.59 22.6963 122.273 22.1173 124.608 22.1173V20.5143C124.454 19.6273 123.855 19.3363 123.199 19.3363C122.157 19.3363 121.732 20.0123 121.732 20.7473H119.898C119.898 19.2803 120.767 17.9863 123.334 17.9863C126.345 17.9863 126.345 20.2453 126.345 21.0753V27.3863H124.608V26.2483Z" fill="#1A1919"/>
<path fill-rule="evenodd" clip-rule="evenodd" d="M128.195 18.1973H129.875L131.322 24.8573H131.361L133.368 18.1973H134.681L136.688 24.8573H136.727L138.174 18.1973H139.854L137.789 27.3853H135.955L134.044 21.0153H134.005L132.152 27.3853H130.318L128.195 18.1973Z" fill="#1A1919"/>
<path fill-rule="evenodd" clip-rule="evenodd" d="M145.855 23.2753C144.485 23.2753 143.114 23.8933 143.114 25.0703C143.114 25.7843 143.596 26.2483 144.118 26.2483C145.315 26.2483 146.203 24.8773 146.203 23.7953V23.2753H145.855ZM146.203 26.2483H146.165C145.932 26.7493 145.199 27.5983 143.79 27.5983C142.072 27.5983 141.184 26.5563 141.184 25.1273C141.184 22.6963 143.868 22.1173 146.203 22.1173V20.5143C146.048 19.6273 145.45 19.3363 144.794 19.3363C143.752 19.3363 143.327 20.0123 143.327 20.7473H141.493C141.493 19.2803 142.361 17.9863 144.928 17.9863C147.94 17.9863 147.94 20.2453 147.94 21.0753V27.3863H146.203V26.2483Z" fill="#1A1919"/>
<path fill-rule="evenodd" clip-rule="evenodd" d="M150.469 18.1983H152.207V20.0513H152.245C152.497 19.3183 153.268 17.9863 155.083 17.9863V19.8773C153.519 19.8773 152.207 20.6693 152.207 23.4873V27.3863H150.469V18.1983Z" fill="#1A1919"/>
<path fill-rule="evenodd" clip-rule="evenodd" d="M159.576 26.2474C160.986 26.2474 161.564 24.2964 161.564 22.7724C161.564 21.1694 161.101 19.3354 159.557 19.3354C158.207 19.3354 157.761 20.8614 157.761 22.7924C157.761 24.1814 157.955 26.2474 159.576 26.2474ZM161.564 25.9764H161.526C161.334 26.4984 160.58 27.5974 158.978 27.5974C156.739 27.5974 155.832 25.5714 155.832 22.9464C155.832 19.8964 156.99 17.9854 159.075 17.9854C160.599 17.9854 161.314 18.9314 161.526 19.4714H161.564V14.0664H163.302V27.3854H161.564V25.9764Z" fill="#1A1919"/>
<path fill-rule="evenodd" clip-rule="evenodd" d="M171.332 25.9765C172.933 24.6835 177.179 20.7065 177.179 18.1405C177.179 17.0975 176.601 16.2875 175.308 16.2875C173.995 16.2875 173.474 17.1175 173.474 17.9665H171.351C171.486 16.6725 172.238 14.9355 175.327 14.9355C177.412 14.9355 179.11 16.1135 179.11 18.2755C179.11 21.7105 175.693 24.2395 173.648 26.0345H179.207V27.3855H171.332V25.9765Z" fill="#1A1919"/>
<path fill-rule="evenodd" clip-rule="evenodd" d="M186.174 26.2475C188.432 26.2475 188.741 23.5445 188.741 21.2675C188.741 19.0075 188.432 16.2875 186.174 16.2875C183.954 16.2875 183.645 19.0075 183.645 21.2675C183.645 23.5445 183.954 26.2475 186.174 26.2475ZM181.715 21.2675C181.715 18.0435 182.623 14.9355 186.174 14.9355C189.725 14.9355 190.671 18.0435 190.671 21.2675C190.671 24.4905 189.725 27.5975 186.174 27.5975C182.623 27.5975 181.715 24.4905 181.715 21.2675Z" fill="#1A1919"/>
<path fill-rule="evenodd" clip-rule="evenodd" d="M195.764 16.8844L193.332 18.3514V16.6724L196.073 15.1484H197.694V27.3854H195.764V16.8844Z" fill="#1A1919"/>
<path fill-rule="evenodd" clip-rule="evenodd" d="M202.596 22.8494H206.071V17.1744H206.033L202.596 22.8494ZM206.071 24.2014H200.82V23.0034L205.878 15.1484H208.002V22.8494H210.105V24.2014H208.002V27.3854H206.071V24.2014Z" fill="#1A1919"/>
<mask id="mask0_2503_26791" style="mask-type:luminance" maskUnits="userSpaceOnUse" x="34" y="37" width="18" height="16">
<path d="M47.942 43.8215C47.921 43.3925 47.782 43.0425 47.548 42.7725C47.316 42.5065 46.991 42.3205 46.597 42.2205C46.205 42.1225 45.743 42.1095 45.236 42.1865C44.731 42.2645 44.18 42.4325 43.606 42.6965C43.032 42.9605 42.488 43.2955 41.994 43.6745C41.501 44.0545 41.057 44.4815 40.684 44.9275C40.31 45.3755 40.007 45.8435 39.797 46.3075C39.585 46.7745 39.467 47.2355 39.465 47.6675C39.463 48.1005 39.579 48.4645 39.789 48.7475C40.002 49.0325 40.312 49.2375 40.696 49.3555C41.083 49.4735 41.544 49.5045 42.058 49.4375C42.575 49.3725 43.143 49.2085 43.738 48.9415C44.336 48.6745 44.904 48.3275 45.418 47.9305C45.932 47.5355 46.392 47.0895 46.774 46.6225C47.155 46.1575 47.458 45.6715 47.66 45.1935C47.861 44.7175 47.963 44.2515 47.942 43.8215ZM51.896 40.3145C51.962 41.2045 51.689 42.0635 51.105 43.2415C50.62 44.2175 49.811 44.9825 49.005 45.9745C48.195 46.9705 47.228 47.8815 46.129 48.7285C45.029 49.5755 44.052 50.3875 42.777 50.9535C41.509 51.5185 40.357 52.1445 39.271 52.2745C38.193 52.4025 37.234 52.3245 36.439 52.0615C35.653 51.7985 35.03 51.3545 34.613 50.7455C34.202 50.1445 33.993 49.3815 34.027 48.4755C34.06 47.5795 34.33 46.6265 34.784 45.6695C35.235 44.7175 35.872 43.7605 36.646 42.8485C37.417 41.9395 38.33 41.0715 39.339 40.2955C40.348 39.5185 41.457 38.8315 42.628 38.2835C43.803 37.7335 44.933 37.3745 45.972 37.1965C47.018 37.0155 47.977 37.0195 48.798 37.1985C49.628 37.3795 50.366 37.6675 50.868 38.1985C51.375 38.7355 51.832 39.4345 51.896 40.3145Z" fill="white"/>
</mask>
<g mask="url(#mask0_2503_26791)">
<path fill-rule="evenodd" clip-rule="evenodd" d="M47.942 43.8215C47.921 43.3925 47.782 43.0425 47.548 42.7725C47.316 42.5065 46.991 42.3205 46.597 42.2205C46.205 42.1225 45.743 42.1095 45.236 42.1865C44.731 42.2645 44.18 42.4325 43.606 42.6965C43.032 42.9605 42.488 43.2955 41.994 43.6745C41.501 44.0545 41.057 44.4815 40.684 44.9275C40.31 45.3755 40.007 45.8435 39.797 46.3075C39.585 46.7745 39.467 47.2355 39.465 47.6675C39.463 48.1005 39.579 48.4645 39.789 48.7475C40.002 49.0325 40.312 49.2375 40.696 49.3555C41.083 49.4735 41.544 49.5045 42.058 49.4375C42.575 49.3725 43.143 49.2085 43.738 48.9415C44.336 48.6745 44.904 48.3275 45.418 47.9305C45.932 47.5355 46.392 47.0895 46.774 46.6225C47.155 46.1575 47.458 45.6715 47.66 45.1935C47.861 44.7175 47.963 44.2515 47.942 43.8215ZM51.896 40.3145C51.962 41.2045 51.689 42.0635 51.105 43.2415C50.62 44.2175 49.811 44.9825 49.005 45.9745C48.195 46.9705 47.228 47.8815 46.129 48.7285C45.029 49.5755 44.052 50.3875 42.777 50.9535C41.509 51.5185 40.357 52.1445 39.271 52.2745C38.193 52.4025 37.234 52.3245 36.439 52.0615C35.653 51.7985 35.03 51.3545 34.613 50.7455C34.202 50.1445 33.993 49.3815 34.027 48.4755C34.06 47.5795 34.33 46.6265 34.784 45.6695C35.235 44.7175 35.872 43.7605 36.646 42.8485C37.417 41.9395 38.33 41.0715 39.339 40.2955C40.348 39.5185 41.457 38.8315 42.628 38.2835C43.803 37.7335 44.933 37.3745 45.972 37.1965C47.018 37.0155 47.977 37.0195 48.798 37.1985C49.628 37.3795 50.366 37.6675 50.868 38.1985C51.375 38.7355 51.832 39.4345 51.896 40.3145Z" fill="url(#paint0_radial_2503_26791)"/>
</g>
<mask id="mask1_2503_26791" style="mask-type:luminance" maskUnits="userSpaceOnUse" x="8" y="7" width="17" height="19">
<path d="M19.4727 9.44322C16.1867 11.4902 14.2327 12.5662 11.8237 15.5162C10.8577 16.6992 10.2867 17.3792 9.61469 18.7502C9.27969 19.4332 8.88269 20.5572 8.88269 20.5572L8.71569 21.8202L8.45569 23.5272L8.32569 25.0572L8.30469 25.5762C8.30869 25.4462 8.31669 25.3132 8.32969 25.1772C8.34269 25.0422 8.35869 24.9042 8.38069 24.7642C8.40169 24.6242 8.42769 24.4822 8.45769 24.3372C8.48869 24.1932 8.52269 24.0452 8.56169 23.8962C8.95369 22.3852 9.62169 20.7972 10.6907 19.0162C11.8667 17.0572 12.7627 16.0572 14.3877 14.4692C15.9997 12.8942 17.0727 11.7472 19.0217 10.3182C20.2077 9.44822 23.0997 7.62522 24.8087 7.39222C25.4907 7.29922 23.2577 7.46622 22.3827 7.87922C21.2037 8.43622 20.5667 8.76222 19.4727 9.44322Z" fill="white"/>
</mask>
<g mask="url(#mask1_2503_26791)">
<path fill-rule="evenodd" clip-rule="evenodd" d="M19.4727 9.44322C16.1867 11.4902 14.2327 12.5662 11.8237 15.5162C10.8577 16.6992 10.2867 17.3792 9.61469 18.7502C9.27969 19.4332 8.88269 20.5572 8.88269 20.5572L8.71569 21.8202L8.45569 23.5272L8.32569 25.0572L8.30469 25.5762C8.30869 25.4462 8.31669 25.3132 8.32969 25.1772C8.34269 25.0422 8.35869 24.9042 8.38069 24.7642C8.40169 24.6242 8.42769 24.4822 8.45769 24.3372C8.48869 24.1932 8.52269 24.0452 8.56169 23.8962C8.95369 22.3852 9.62169 20.7972 10.6907 19.0162C11.8667 17.0572 12.7627 16.0572 14.3877 14.4692C15.9997 12.8942 17.0727 11.7472 19.0217 10.3182C20.2077 9.44822 23.0997 7.62522 24.8087 7.39222C25.4907 7.29922 23.2577 7.46622 22.3827 7.87922C21.2037 8.43622 20.5667 8.76222 19.4727 9.44322Z" fill="url(#paint1_linear_2503_26791)"/>
</g>
<mask id="mask2_2503_26791" style="mask-type:luminance" maskUnits="userSpaceOnUse" x="6" y="6" width="38" height="35">
<path d="M43.3423 10.7703L42.0933 9.4733L40.7683 8.3013L40.0973 7.7773L38.5843 7.1733C37.7613 6.9123 36.7513 6.5373 35.6583 6.3813C34.6133 6.2323 32.9833 6.0213 31.6983 6.2943C30.4293 6.5633 29.5833 6.8603 28.1433 7.4743C26.7183 8.0823 25.2193 8.8603 23.6733 9.8093C21.5263 11.1273 19.4743 12.6613 17.5863 14.3153C15.6983 15.9703 13.9593 17.7603 12.4493 19.5903C10.9253 21.4353 9.62127 23.3363 8.62627 25.1913C7.61527 27.0773 7.19027 28.9363 6.90527 30.6493C6.85027 30.9853 6.89827 31.3003 6.87627 31.6133C6.85327 31.9273 7.14527 33.9153 7.48927 35.3513C7.63627 35.9653 7.70927 36.3153 7.91327 36.9123C8.15327 37.6123 8.66327 38.6543 8.66327 38.6543L8.91527 39.0993L9.47827 40.0213C9.27027 39.6983 9.09727 39.3473 8.95727 38.9683C8.81827 38.5913 8.71527 38.1873 8.64627 37.7563C8.57927 37.3283 8.54627 36.8743 8.55127 36.3943C8.55527 35.9173 8.59527 35.4163 8.67327 34.8893C8.94527 33.0403 9.65727 31.0533 10.6993 29.0423C11.7233 27.0653 13.0743 25.0493 14.6593 23.0993C16.2303 21.1693 18.0443 19.2863 20.0203 17.5533C21.9953 15.8213 24.1493 14.2213 26.4093 12.8573C28.2393 11.7513 30.0123 10.8753 31.6873 10.2283C33.3853 9.5733 34.9893 9.1483 36.4543 8.9573C37.9433 8.7623 39.2933 8.8083 40.4513 9.1003C41.6333 9.3993 42.6163 9.9533 43.3423 10.7703Z" fill="white"/>
</mask>
<g mask="url(#mask2_2503_26791)">
<path fill-rule="evenodd" clip-rule="evenodd" d="M43.3423 10.7703L42.0933 9.4733L40.7683 8.3013L40.0973 7.7773L38.5843 7.1733C37.7613 6.9123 36.7513 6.5373 35.6583 6.3813C34.6133 6.2323 32.9833 6.0213 31.6983 6.2943C30.4293 6.5633 29.5833 6.8603 28.1433 7.4743C26.7183 8.0823 25.2193 8.8603 23.6733 9.8093C21.5263 11.1273 19.4743 12.6613 17.5863 14.3153C15.6983 15.9703 13.9593 17.7603 12.4493 19.5903C10.9253 21.4353 9.62127 23.3363 8.62627 25.1913C7.61527 27.0773 7.19027 28.9363 6.90527 30.6493C6.85027 30.9853 6.89827 31.3003 6.87627 31.6133C6.85327 31.9273 7.14527 33.9153 7.48927 35.3513C7.63627 35.9653 7.70927 36.3153 7.91327 36.9123C8.15327 37.6123 8.66327 38.6543 8.66327 38.6543L8.91527 39.0993L9.47827 40.0213C9.27027 39.6983 9.09727 39.3473 8.95727 38.9683C8.81827 38.5913 8.71527 38.1873 8.64627 37.7563C8.57927 37.3283 8.54627 36.8743 8.55127 36.3943C8.55527 35.9173 8.59527 35.4163 8.67327 34.8893C8.94527 33.0403 9.65727 31.0533 10.6993 29.0423C11.7233 27.0653 13.0743 25.0493 14.6593 23.0993C16.2303 21.1693 18.0443 19.2863 20.0203 17.5533C21.9953 15.8213 24.1493 14.2213 26.4093 12.8573C28.2393 11.7513 30.0123 10.8753 31.6873 10.2283C33.3853 9.5733 34.9893 9.1483 36.4543 8.9573C37.9433 8.7623 39.2933 8.8083 40.4513 9.1003C41.6333 9.3993 42.6163 9.9533 43.3423 10.7703Z" fill="url(#paint2_radial_2503_26791)"/>
</g>
<mask id="mask3_2503_26791" style="mask-type:luminance" maskUnits="userSpaceOnUse" x="10" y="11" width="42" height="39">
<path d="M51.4089 20.6939L49.3489 15.2469L48.8139 14.0549C48.0969 12.8479 46.9159 12.0599 45.5679 11.5699C44.2499 11.0919 41.9019 11.1199 40.1489 11.3009C38.4289 11.4779 36.5329 11.9679 34.5329 12.7629C32.5609 13.5469 30.4789 14.6329 28.3459 16.0179C25.9709 17.5599 23.7389 19.3439 21.7189 21.2579C19.6979 23.1749 17.8719 25.2389 16.3209 27.3419C14.7559 29.4659 13.4589 31.6469 12.5229 33.7699C11.5689 35.9309 10.9819 38.0489 10.8679 39.9989C10.8249 40.7359 10.8509 41.4239 10.9419 42.0609C11.0339 42.7059 11.1929 43.2979 11.4139 43.8369C11.6369 44.3809 11.9239 44.8719 12.2709 45.3059C12.6219 45.7449 13.0329 46.1269 13.5019 46.4479L15.1209 47.4779L16.6629 48.3019L18.3709 49.0549L19.8999 49.6009C19.1639 49.3709 18.5069 49.0429 17.9389 48.6229C17.3779 48.2089 16.9029 47.7049 16.5229 47.1129C16.1479 46.5289 15.8659 45.8609 15.6849 45.1129C15.5049 44.3729 15.4249 43.5539 15.4509 42.6619C15.5049 40.8219 16.0059 38.8279 16.8559 36.7969C17.6919 34.7989 18.8719 32.7499 20.3119 30.7599C21.7369 28.7869 23.4279 26.8569 25.3089 25.0729C27.1869 23.2899 29.2729 21.6369 31.4969 20.2189C33.7179 18.8029 35.8869 17.7429 37.9219 17.0369C39.9889 16.3199 42.7009 15.7919 44.4199 15.8039C46.1759 15.8159 47.7069 16.2109 48.9029 17.0029C50.1279 17.8129 50.3619 19.1759 50.7659 20.8309L51.4089 20.6939Z" fill="white"/>
</mask>
<g mask="url(#mask3_2503_26791)">
<path fill-rule="evenodd" clip-rule="evenodd" d="M51.4089 20.6939L49.3489 15.2469L48.8139 14.0549C48.0969 12.8479 46.9159 12.0599 45.5679 11.5699C44.2499 11.0919 41.9019 11.1199 40.1489 11.3009C38.4289 11.4779 36.5329 11.9679 34.5329 12.7629C32.5609 13.5469 30.4789 14.6329 28.3459 16.0179C25.9709 17.5599 23.7389 19.3439 21.7189 21.2579C19.6979 23.1749 17.8719 25.2389 16.3209 27.3419C14.7559 29.4659 13.4589 31.6469 12.5229 33.7699C11.5689 35.9309 10.9819 38.0489 10.8679 39.9989C10.8249 40.7359 10.8509 41.4239 10.9419 42.0609C11.0339 42.7059 11.1929 43.2979 11.4139 43.8369C11.6369 44.3809 11.9239 44.8719 12.2709 45.3059C12.6219 45.7449 13.0329 46.1269 13.5019 46.4479L15.1209 47.4779L16.6629 48.3019L18.3709 49.0549L19.8999 49.6009C19.1639 49.3709 18.5069 49.0429 17.9389 48.6229C17.3779 48.2089 16.9029 47.7049 16.5229 47.1129C16.1479 46.5289 15.8659 45.8609 15.6849 45.1129C15.5049 44.3729 15.4249 43.5539 15.4509 42.6619C15.5049 40.8219 16.0059 38.8279 16.8559 36.7969C17.6919 34.7989 18.8719 32.7499 20.3119 30.7599C21.7369 28.7869 23.4279 26.8569 25.3089 25.0729C27.1869 23.2899 29.2729 21.6369 31.4969 20.2189C33.7179 18.8029 35.8869 17.7429 37.9219 17.0369C39.9889 16.3199 42.7009 15.7919 44.4199 15.8039C46.1759 15.8159 47.7069 16.2109 48.9029 17.0029C50.1279 17.8129 50.3619 19.1759 50.7659 20.8309L51.4089 20.6939Z" fill="url(#paint3_radial_2503_26791)"/>
</g>
<mask id="mask4_2503_26791" style="mask-type:luminance" maskUnits="userSpaceOnUse" x="20" y="22" width="35" height="32">
<path d="M53.0194 31.944C53.1624 31.545 54.0224 31.249 54.1354 30.845C54.2484 30.44 54.3464 30.032 54.4284 29.622C54.5114 29.211 54.7574 26.964 54.7764 26.547C54.6904 26.305 54.7154 26.087 54.5844 25.84C53.9724 24.68 53.3444 24.24 52.3324 23.559C51.1724 22.78 48.9494 22.27 47.2374 22.235C45.5564 22.2 43.6564 22.52 41.6344 23.188C39.6394 23.847 37.5154 24.849 35.3464 26.197C33.1934 27.533 31.1824 29.093 29.3804 30.778C27.5764 32.463 25.9664 34.284 24.6224 36.143C23.2694 38.016 22.1764 39.938 21.4254 41.809C20.6634 43.706 20.2474 45.561 20.2704 47.261C20.2854 48.328 20.4714 49.273 20.8094 50.093C21.1544 50.922 21.6554 51.622 22.2964 52.186C22.9464 52.756 23.7194 53.218 24.6534 53.43C25.6154 53.648 26.5694 53.806 27.7914 53.86L28.0454 53.853L29.8544 53.739L31.6224 53.514L32.4984 53.36L34.1144 52.999L35.6764 52.554L36.1024 52.414L37.5224 51.897L37.8264 51.775C36.1894 52.448 34.6434 52.844 33.2464 52.979C31.8654 53.111 30.6334 52.987 29.6024 52.621C28.5834 52.26 27.7624 51.665 27.1824 50.852C26.6104 50.05 26.2734 49.036 26.2154 47.822C26.1514 46.461 26.4424 44.973 27.0204 43.449C27.5904 41.941 28.4424 40.389 29.5144 38.88C30.5784 37.379 31.8644 35.91 33.3124 34.555C34.7614 33.201 36.3804 31.953 38.1194 30.893C39.8674 29.828 41.5804 29.047 43.1874 28.548C44.8114 28.044 46.3354 27.825 47.6794 27.893C49.0434 27.963 50.2254 28.327 51.1424 28.991C52.0734 29.665 52.7304 30.649 53.0194 31.944Z" fill="white"/>
</mask>
<g mask="url(#mask4_2503_26791)">
<path fill-rule="evenodd" clip-rule="evenodd" d="M53.0194 31.944C53.1624 31.545 54.0224 31.249 54.1354 30.845C54.2484 30.44 54.3464 30.032 54.4284 29.622C54.5114 29.211 54.7574 26.964 54.7764 26.547C54.6904 26.305 54.7154 26.087 54.5844 25.84C53.9724 24.68 53.3444 24.24 52.3324 23.559C51.1724 22.78 48.9494 22.27 47.2374 22.235C45.5564 22.2 43.6564 22.52 41.6344 23.188C39.6394 23.847 37.5154 24.849 35.3464 26.197C33.1934 27.533 31.1824 29.093 29.3804 30.778C27.5764 32.463 25.9664 34.284 24.6224 36.143C23.2694 38.016 22.1764 39.938 21.4254 41.809C20.6634 43.706 20.2474 45.561 20.2704 47.261C20.2854 48.328 20.4714 49.273 20.8094 50.093C21.1544 50.922 21.6554 51.622 22.2964 52.186C22.9464 52.756 23.7194 53.218 24.6534 53.43C25.6154 53.648 26.5694 53.806 27.7914 53.86L28.0454 53.853L29.8544 53.739L31.6224 53.514L32.4984 53.36L34.1144 52.999L35.6764 52.554L36.1024 52.414L37.5224 51.897L37.8264 51.775C36.1894 52.448 34.6434 52.844 33.2464 52.979C31.8654 53.111 30.6334 52.987 29.6024 52.621C28.5834 52.26 27.7624 51.665 27.1824 50.852C26.6104 50.05 26.2734 49.036 26.2154 47.822C26.1514 46.461 26.4424 44.973 27.0204 43.449C27.5904 41.941 28.4424 40.389 29.5144 38.88C30.5784 37.379 31.8644 35.91 33.3124 34.555C34.7614 33.201 36.3804 31.953 38.1194 30.893C39.8674 29.828 41.5804 29.047 43.1874 28.548C44.8114 28.044 46.3354 27.825 47.6794 27.893C49.0434 27.963 50.2254 28.327 51.1424 28.991C52.0734 29.665 52.7304 30.649 53.0194 31.944Z" fill="url(#paint4_radial_2503_26791)"/>
</g>
<path fill-rule="evenodd" clip-rule="evenodd" d="M33.1691 9.11863C32.9361 9.89063 32.4071 10.7216 31.6471 11.5636C30.8801 12.4136 29.8781 13.2726 28.7141 14.0876C27.5431 14.9076 26.2131 15.6796 24.7961 16.3536C23.3781 17.0276 21.8831 17.5976 20.3841 18.0166C18.8941 18.4316 17.5501 18.6546 16.3981 18.7016C15.2581 18.7496 14.3111 18.6236 13.5981 18.3456C12.8941 18.0716 12.4191 17.6486 12.2121 17.0956C12.0071 16.5506 12.0641 15.8776 12.4171 15.0966C12.5221 14.8616 12.6531 14.6226 12.8061 14.3816C12.9571 14.1406 13.1311 13.8986 13.3251 13.6556C13.5181 13.4136 13.7301 13.1706 13.9611 12.9276C14.1911 12.6856 14.4391 12.4436 14.7041 12.2026L15.4151 11.5796L16.1141 11.0136L16.7771 10.5146L17.4401 10.0506L18.0921 9.62463L18.7251 9.23963L19.3511 8.88463C19.3511 8.88463 18.0811 9.85763 17.4541 10.6506C17.1041 11.0956 16.8171 11.4846 16.6551 11.8636C16.4911 12.2446 16.4771 12.5686 16.5931 12.8276C16.7101 13.0896 16.9581 13.2846 17.3171 13.4066C17.6791 13.5286 18.1531 13.5766 18.7181 13.5426C19.2851 13.5076 19.9431 13.3886 20.6701 13.1796C21.3991 12.9706 22.1261 12.6906 22.8151 12.3636C23.5041 12.0366 24.1531 11.6636 24.7271 11.2686C25.3001 10.8746 25.7971 10.4596 26.1851 10.0476C26.5711 9.63663 26.8471 9.23063 26.9811 8.85263C27.1141 8.47563 27.0951 8.16163 26.9451 7.91663C26.7961 7.67363 26.5211 7.49663 26.1411 7.39363C25.7641 7.29163 25.2971 7.31563 24.7441 7.42063C24.2031 7.52263 23.5711 7.56863 22.8721 7.77663C22.4201 7.90963 22.1631 8.00963 21.7291 8.20863C23.0531 7.52263 23.8411 7.19863 25.2641 6.75163C26.1831 6.46263 26.8131 6.29463 27.6591 6.14263C28.6421 5.96763 29.4711 5.97963 30.2181 6.04163C30.9691 6.10463 31.6061 6.26163 32.1021 6.51163C32.6021 6.76263 32.9601 7.10763 33.1471 7.54063C33.3371 7.97863 33.3541 8.50663 33.1691 9.11863Z" fill="#D8232A"/>
<path fill-rule="evenodd" clip-rule="evenodd" d="M51.6347 42.0263C51.6347 42.0263 51.3068 42.9173 51.0118 43.4423C50.7368 43.9303 50.1978 44.6223 50.1978 44.6223C50.1978 44.6223 50.0188 44.8593 49.9008 45.0083C49.5708 45.4303 49.0227 46.0653 49.0227 46.0653L48.2888 46.8623C47.5308 47.6483 46.6648 48.4063 45.7118 49.1203C44.7548 49.8353 43.7138 50.5043 42.6088 51.1083C41.5018 51.7113 40.3358 52.2493 39.1308 52.7013C37.9288 53.1543 36.6917 53.5203 35.4447 53.7823C35.1997 53.8343 34.9577 53.8823 34.7167 53.9243C34.4767 53.9673 34.2388 54.0053 34.0038 54.0383C33.7698 54.0733 33.5377 54.1023 33.3087 54.1263C33.0807 54.1523 32.8557 54.1723 32.6327 54.1883L31.2708 54.2463L30.9718 54.2483L29.5168 54.2073L28.0368 54.0743C28.0368 54.0743 27.7837 54.0413 27.6227 54.0193C27.0067 53.9323 26.6607 53.8743 26.0527 53.7483C25.4337 53.6203 24.4778 53.3663 24.4778 53.3663L23.6858 53.1003L23.4688 52.9953C24.0288 53.2143 24.7587 53.4203 25.4827 53.5313C26.2117 53.6423 26.9907 53.7043 27.8137 53.7163C28.6417 53.7273 29.5147 53.6873 30.4267 53.5903C31.3417 53.4943 32.2967 53.3423 33.2857 53.1313C35.5507 52.6493 37.7947 51.9013 39.9257 50.9523C42.0587 50.0033 44.0648 48.8593 45.8588 47.5883C47.6438 46.3243 49.2077 44.9423 50.4747 43.5073C50.9127 43.0113 51.2727 42.5613 51.6407 42.0073C51.6537 41.9883 51.6347 42.0263 51.6347 42.0263Z" fill="#D8232A"/>
<path fill-rule="evenodd" clip-rule="evenodd" d="M38.6222 7.1893L40.2112 7.7873L41.7792 8.5083L42.3322 8.7943C42.7702 9.0263 43.1532 9.2963 43.4752 9.6043C43.8002 9.9143 44.0622 10.2613 44.2572 10.6473C44.4522 11.0363 44.5792 11.4623 44.6302 11.9253C44.6822 12.3943 44.6572 12.8993 44.5482 13.4413C44.2632 14.8723 43.4252 16.4183 42.1452 17.9863C40.8432 19.5813 39.0912 21.1903 37.0122 22.7123C34.9152 24.2493 32.5012 25.6853 29.9142 26.9193C27.3242 28.1533 24.5842 29.1743 21.8412 29.8803C19.3882 30.5123 17.1622 30.8343 15.2262 30.8793C13.3202 30.9233 11.7052 30.6973 10.4352 30.2353C9.18918 29.7823 8.27918 29.1043 7.74918 28.2333C7.22818 27.3793 7.07418 26.3423 7.32418 25.1503L7.43518 24.6423L7.88918 22.9583L8.45618 21.3293L9.03918 19.9513L9.57318 18.8283L9.48418 19.0553C9.50318 19.0143 9.46318 19.1023 9.46318 19.1023C8.95718 20.2233 8.85518 21.2023 9.11418 22.0103C9.38118 22.8443 10.0332 23.4973 11.0212 23.9373C12.0252 24.3833 13.3742 24.6093 15.0112 24.5803C16.6692 24.5513 18.6162 24.2603 20.7802 23.6783C22.9602 23.0913 25.1402 22.2693 27.2032 21.2883C29.2642 20.3063 31.1922 19.1743 32.8802 17.9673C34.5542 16.7703 35.9782 15.5083 37.0542 14.2573C38.1162 13.0253 38.8302 11.8103 39.1102 10.6853C39.2552 10.1043 39.2762 9.5763 39.1852 9.1043C39.0952 8.6353 38.8952 8.2223 38.5982 7.8653C38.3042 7.5113 37.9132 7.2133 37.4382 6.9713C37.1192 6.8093 36.7622 6.6723 36.3692 6.5613L35.7842 6.4043C36.0372 6.4413 36.1792 6.4683 36.3692 6.5163C36.3692 6.5163 36.9402 6.6563 37.3022 6.7603C37.8222 6.9103 38.6222 7.1893 38.6222 7.1893Z" fill="#D8232A"/>
<path fill-rule="evenodd" clip-rule="evenodd" d="M49.1771 14.2743L50.3591 15.7583L51.4321 17.3523L51.9121 18.1653C52.0551 18.4193 52.1771 18.6833 52.2751 18.9613C52.3761 19.2393 52.4541 19.5303 52.5081 19.8323C52.5631 20.1353 52.5931 20.4523 52.6001 20.7803C52.6051 21.1103 52.5871 21.4503 52.5421 21.8043C52.3101 23.6283 51.4061 25.5843 49.9511 27.5563C48.4661 29.5703 46.4211 31.5853 43.9611 33.4763C41.4721 35.3893 38.5851 37.1563 35.4671 38.6473C32.3461 40.1393 29.0311 41.3373 25.7021 42.1183C23.3311 42.6753 21.1311 42.9773 19.1451 43.0503C17.1841 43.1213 15.4401 42.9683 13.9461 42.6143C12.4771 42.2663 11.2541 41.7273 10.3081 41.0203C9.37705 40.3273 8.71405 39.4723 8.34305 38.4833L7.96805 37.4033L7.45405 35.5553L7.09305 33.6923L7.01905 33.1683L6.91505 32.1193C6.90205 32.0193 6.91905 32.1193 6.91905 32.1193C7.05105 33.1193 7.46805 33.9943 8.16105 34.7223C8.93705 35.5383 10.0501 36.1693 11.4641 36.5843C12.9031 37.0073 14.6491 37.2043 16.6581 37.1433C18.6971 37.0833 20.9961 36.7593 23.5021 36.1423C26.6391 35.3713 29.7691 34.2233 32.7211 32.8143C35.6711 31.4053 38.4121 29.7513 40.7841 27.9703C43.1291 26.2093 45.0911 24.3413 46.5301 22.4843C47.9411 20.6623 48.8391 18.8623 49.1031 17.1923C49.1781 16.7233 49.2001 16.2783 49.1741 15.8573C49.1481 15.4383 49.0731 15.0433 48.9541 14.6723C48.8361 14.3023 48.6721 13.9573 48.4691 13.6363C48.3431 13.4383 48.2021 13.2553 48.0451 13.0753V13.0703L49.0271 14.1023L49.1771 14.2743Z" fill="#D8232A"/>
<path fill-rule="evenodd" clip-rule="evenodd" d="M55.0069 28.1427C55.1509 29.6477 55.1969 30.5257 54.9559 32.0177C54.5839 34.3227 53.9829 35.6807 52.6909 37.5587C51.3749 39.4707 49.5479 41.3637 47.3439 43.1207C45.1159 44.8957 42.5209 46.5157 39.7099 47.8637C36.8969 49.2117 33.8959 50.2727 30.8669 50.9317C29.2969 51.2737 27.8049 51.4887 26.4039 51.5857C25.0129 51.6837 23.7169 51.6637 22.5269 51.5387C21.3489 51.4147 20.2779 51.1867 19.3269 50.8647C18.3849 50.5447 17.5619 50.1327 16.8659 49.6387L15.4059 48.5027L14.1879 47.4037C14.1879 47.4037 13.3569 46.5927 12.8759 46.0297C12.5299 45.6277 12.0309 44.9637 12.0309 44.9637C12.5929 45.6077 13.2849 46.1647 14.1539 46.6217C15.1689 47.1587 16.3839 47.5567 17.7789 47.8047C19.1909 48.0527 20.7839 48.1447 22.5339 48.0607C24.3019 47.9747 26.2239 47.7117 28.2709 47.2507C31.5599 46.5107 34.8269 45.3457 37.8959 43.8767C40.9619 42.4087 43.7959 40.6537 46.2309 38.7427C48.6389 36.8527 50.6339 34.8277 52.0729 32.7947C53.4839 30.8017 54.3499 28.8147 54.5519 26.9487C54.5729 26.7487 54.5869 26.5507 54.5929 26.3567C54.5989 26.1627 54.5699 25.9527 54.5499 25.7767C54.5279 25.5797 54.7959 26.6247 54.7959 26.6247C54.7959 26.6247 54.9499 27.5487 55.0069 28.1427Z" fill="#D8232A"/>
<path fill-rule="evenodd" clip-rule="evenodd" d="M64.7656 36.752H66.1576L67.3586 42.276H67.3906L69.0546 36.752H70.1436L71.8086 42.276H71.8396L73.0406 36.752H74.4336L72.7206 44.372H71.1996L69.6156 39.09H69.5836L68.0466 44.372H66.5256L64.7656 36.752Z" fill="#1A1919"/>
<path fill-rule="evenodd" clip-rule="evenodd" d="M76.7338 44.3721H78.1738V36.7521H76.7338V44.3721ZM76.5898 34.9611H78.3188V33.3281H76.5898V34.9611Z" fill="#1A1919"/>
<path fill-rule="evenodd" clip-rule="evenodd" d="M81.0391 36.7512H82.4801V38.3842H82.5121C82.7681 37.7452 83.3761 36.5762 84.9291 36.5762C86.6901 36.5762 86.9781 38.1442 86.9781 39.0892V44.3712H85.5371V40.2092C85.5371 38.8002 85.5371 38.0172 84.4971 38.0172C83.3121 38.0172 82.4801 39.6172 82.4801 41.1382V44.3712H81.0391V36.7512Z" fill="#1A1919"/>
<path fill-rule="evenodd" clip-rule="evenodd" d="M89.6641 36.7512H91.1041V38.3842H91.1361C91.3921 37.7452 92.0011 36.5762 93.5531 36.5762C95.3141 36.5762 95.6021 38.1442 95.6021 39.0892V44.3712H94.1611V40.2092C94.1611 38.8002 94.1611 38.0172 93.1211 38.0172C91.9371 38.0172 91.1041 39.6172 91.1041 41.1382V44.3712H89.6641V36.7512Z" fill="#1A1919"/>
<path fill-rule="evenodd" clip-rule="evenodd" d="M102.16 39.0412C102.16 38.5602 101.872 37.6972 100.767 37.6972C99.5832 37.6972 99.2472 38.7052 99.2472 39.0412H102.16ZM103.424 44.2912C102.8 44.4352 102.352 44.5472 101.52 44.5472C99.2142 44.5472 97.7422 43.1872 97.7422 40.1932C97.7422 36.9282 99.8712 36.5762 100.847 36.5762C102.704 36.5762 103.6 37.8402 103.6 39.6332V40.0012H99.1832C99.1832 41.4252 99.9032 43.4272 101.984 43.4272C102.64 43.4272 103.088 43.2672 103.424 43.1552V44.2912Z" fill="#1A1919"/>
<path fill-rule="evenodd" clip-rule="evenodd" d="M105.711 36.7512H107.151V38.2892H107.184C107.392 37.6802 108.032 36.5762 109.537 36.5762V38.1442C108.24 38.1442 107.151 38.8002 107.151 41.1382V44.3712H105.711V36.7512Z" fill="#1A1919"/>
<defs>
<radialGradient id="paint0_radial_2503_26791" cx="0" cy="0" r="1" gradientUnits="userSpaceOnUse" gradientTransform="translate(1017.94 37.1335) scale(1753.63 1753.63)">
<stop stop-color="#FFFFFE"/>
<stop offset="1" stop-color="#D8232A"/>
</radialGradient>
<linearGradient id="paint1_linear_2503_26791" x1="839.865" y1="7.32016" x2="839.865" y2="1828.26" gradientUnits="userSpaceOnUse">
<stop stop-color="#D8232A"/>
<stop offset="1" stop-color="#FFFFFE"/>
</linearGradient>
<radialGradient id="paint2_radial_2503_26791" cx="0" cy="0" r="1" gradientUnits="userSpaceOnUse" gradientTransform="translate(2339.17 33.8188) scale(4041.3 4043.84)">
<stop stop-color="#FFFFFE"/>
<stop offset="1" stop-color="#D8232A"/>
</radialGradient>
<radialGradient id="paint3_radial_2503_26791" cx="0" cy="0" r="1" gradientUnits="userSpaceOnUse" gradientTransform="translate(2657.26 42.4574) scale(4312.37 4315.08)">
<stop stop-color="#FFFFFE"/>
<stop offset="1" stop-color="#D8232A"/>
</radialGradient>
<radialGradient id="paint4_radial_2503_26791" cx="0" cy="0" r="1" gradientUnits="userSpaceOnUse" gradientTransform="translate(2198.89 47.9075) scale(3678.8 3681.11)">
<stop stop-color="#FFFFFE"/>
<stop offset="1" stop-color="#D8232A"/>
</radialGradient>
</defs>
</svg>
