<svg width="112" height="112" viewBox="0 0 112 112" fill="none" xmlns="http://www.w3.org/2000/svg">
  <path d="M68.7654 75.4308L66.2441 77.5518C65.964 77.7919 65.6038 77.912 65.2436 77.912C62.3622 77.912 49.6358 77.912 46.7544 77.912C46.3942 77.912 46.034 77.7919 45.7539 77.5518L42.6724 74.9505C42.4723 74.7904 42.4723 74.4703 42.6323 74.3102C44.0731 72.8295 49.7959 67.1066 51.8769 65.0256L42.7524 55.1406C39.991 60.2632 30.7864 75.5508 14.8985 78.4723C9.93602 84.7554 3.25268 89.1576 1.25169 90.3982C0.891506 90.6383 0.691406 90.7584 0.691406 90.7584C7.895 90.2381 15.4188 89.7979 23.1826 89.4778C24.3032 89.4377 25.4237 89.3977 26.5443 89.3577L26.5043 89.3977C26.5443 89.3977 26.5443 89.3977 26.5843 89.3977C30.1061 89.2777 33.7479 89.1576 37.3897 89.0776C43.5128 88.9175 49.7559 88.8775 55.999 88.8775C62.2421 88.8775 68.5253 88.9575 74.6083 89.0776C77.4897 89.1576 80.3311 89.2376 83.1325 89.3177L69.3657 75.5108C69.2056 75.2707 68.9255 75.2707 68.7654 75.4308Z" fill="black"/>
  <path d="M111.306 90.7169C111.306 90.7169 111.106 90.5968 110.745 90.3567C108.784 89.1161 102.061 84.7139 97.0986 78.4307C80.2902 75.3492 70.9656 58.4608 68.8445 54.3387C73.767 45.8545 78.9696 39.2112 83.852 34.0486H71.806C71.2457 34.0486 70.7255 34.2487 70.3253 34.6089C70.3253 34.6089 67.6439 37.0101 67.4438 37.2502L60.0801 46.3747C59.76 46.7349 59.3198 46.975 58.8395 46.975H53.1567C52.6765 46.975 52.2362 46.7749 51.9161 46.3747L44.3523 37.0101C44.1922 36.81 44.2322 36.5298 44.4323 36.3697L47.6339 33.7684C47.9141 33.5283 48.2743 33.4083 48.6344 33.4083H63.3218C63.6819 33.4083 64.0421 33.5283 64.3223 33.7684L67.2037 36.1296L69.6449 34.0886C70.2852 33.5683 71.0856 33.2482 71.9261 33.2482H84.5724C88.3743 29.3262 91.896 26.3247 94.7775 24.1236C96.3382 22.963 97.6989 22.0026 98.8595 21.2822C98.8195 21.2822 98.7795 21.2822 98.7394 21.2822C98.7795 21.2822 98.7795 21.2422 98.8195 21.2422C86.2532 22.1626 71.1257 22.6429 55.9981 22.6429C40.8706 22.6429 25.743 22.2027 13.1767 21.2822C13.2168 21.2822 13.2168 21.3222 13.2568 21.3222C13.2168 21.3222 13.1767 21.3222 13.1367 21.3222C14.2573 22.0426 15.658 23.0031 17.2188 24.1636C23.9421 29.2862 34.1072 38.7309 43.1517 54.3387L52.4363 64.3837L52.4763 64.4237C53.877 64.4237 57.3988 64.4237 58.8395 64.4237C59.2797 64.4237 59.6799 64.5838 59.9601 64.904C63.4818 68.4658 84.2922 89.2761 84.2922 89.2761C84.6524 89.2761 85.0526 89.3162 85.4128 89.3162C85.4528 89.3162 85.4528 89.3162 85.4928 89.3162L85.4528 89.2761C86.5734 89.3162 87.6939 89.3562 88.8145 89.3962C96.5784 89.7564 104.102 90.1966 111.306 90.7169Z" fill="black"/>
</svg>
