<svg width="32" height="32" viewBox="0 0 32 32" fill="none" xmlns="http://www.w3.org/2000/svg">
<rect width="32" height="32" fill="#F0EDE7"/>
<g clip-path="url(#clip0_74_1691)">
<path d="M26.6207 10.96V16.8064C26.6207 18.954 24.8749 20.6998 22.7287 20.7026V10.9614H22.4487V20.704H18.5539V10.9614H18.2739V20.984H22.7245C25.0275 20.984 26.9007 19.1108 26.9007 16.8078V10.96H26.6207Z" fill="black"/>
<path d="M13.8456 10.96H5.22021V20.9812H5.50021V11.24H13.8456V10.96Z" fill="black"/>
<path d="M13.8456 12.3516H6.61035V12.6316H13.8456V12.3516Z" fill="black"/>
<path d="M10.3876 18.8602L13.8428 16.7588L13.6972 16.5194L10.2392 18.6222C9.87935 18.0048 9.67215 17.2894 9.67215 16.525H9.39215C9.39215 17.3426 9.61475 18.1084 9.99975 18.7678L6.89035 20.6578V14.0232H13.8456V13.7432H6.61035V13.9098V14.0232V20.9812H6.89735L10.1482 19.0058C10.949 20.1972 12.3084 20.9826 13.8484 20.9826V20.7026C12.4106 20.7012 11.1394 19.9704 10.3876 18.8602Z" fill="black"/>
<path d="M16.0534 12.1066C16.4118 12.1066 16.661 11.8448 16.661 11.4556V10.96H15.4458V11.4556C15.4458 11.8434 15.695 12.1066 16.0534 12.1066ZM15.5564 11.0888H16.5504V11.4486C16.5504 11.772 16.346 11.9806 16.0534 11.9806C15.7608 11.9806 15.5564 11.772 15.5564 11.4486V11.0888Z" fill="black"/>
<path d="M15.5564 13.2167H16.0086V13.8453H16.1178V13.2167H16.5504V13.9223H16.661V13.0879H15.4458V13.9475H15.5564V13.2167Z" fill="black"/>
<path d="M16.3375 14.8575C15.8881 14.8575 16.0925 15.6065 15.7593 15.6065C15.6389 15.6065 15.5437 15.5071 15.5437 15.2803C15.5437 15.1207 15.6067 14.9653 15.6907 14.8785L15.5913 14.8281C15.4975 14.9191 15.4331 15.0969 15.4331 15.2803C15.4331 15.5911 15.5857 15.7339 15.7649 15.7339C16.2073 15.7339 16.0057 14.9849 16.3403 14.9849C16.4621 14.9849 16.5615 15.0843 16.5615 15.3055C16.5615 15.4133 16.5279 15.5351 16.4607 15.6387L16.5629 15.6821C16.6301 15.5855 16.6707 15.4427 16.6707 15.3055C16.6721 14.9961 16.5167 14.8575 16.3375 14.8575Z" fill="black"/>
<path d="M16.661 16.707H15.4458V16.8358H16.661V16.707Z" fill="black"/>
<path d="M16.0534 17.8171C15.6978 17.8171 15.4346 18.0887 15.4346 18.4583C15.4346 18.6263 15.4864 18.7901 15.5886 18.9049H16.052V18.7817H15.6418C15.5746 18.6879 15.548 18.5801 15.548 18.4639C15.548 18.1657 15.7636 17.9445 16.052 17.9445C16.3418 17.9445 16.556 18.1657 16.556 18.4653C16.556 18.6081 16.514 18.7285 16.4132 18.8321L16.4944 18.9119C16.6106 18.8041 16.6694 18.6445 16.6694 18.4597C16.6722 18.0887 16.409 17.8171 16.0534 17.8171Z" fill="black"/>
<path d="M15.4458 20.0907H16.4314L15.4458 20.8719V20.9783H16.661V20.8509H15.674L16.661 20.0683V19.9619H15.4458V20.0907Z" fill="black"/>
</g>
<defs>
<clipPath id="clip0_74_1691">
<rect width="21.6804" height="10.024" fill="white" transform="translate(5.22021 10.96)"/>
</clipPath>
</defs>
</svg>
