<svg width="80" height="230" viewBox="0 0 80 230" fill="none" xmlns="http://www.w3.org/2000/svg">
<path d="M70.6104 43.8799V45.8799H20.9297V93.2695L43.1396 79.7695C40.3898 75.0597 38.7998 69.5898 38.7998 63.75H40.7998C40.7998 69.2098 42.2798 74.3196 44.8496 78.7295L69.5498 63.71L70.5898 65.4199L45.9102 80.4297C51.2801 88.3597 60.3599 93.5798 70.6299 93.5898V95.5898C59.6299 95.5898 49.9202 89.9797 44.2002 81.4697L20.9805 95.5801H18.9297V43.8799H70.6104ZM70.6104 26H11V95.5801H9V24H70.6104V26ZM70.6104 35.9404H18.9297V33.9404H70.6104V35.9404Z" fill="black"/>
<path d="M68.62 122V163.76C68.62 179.1 56.15 191.57 40.82 191.59V122.01H38.82V191.6H11V122.01H9V193.6H40.79C57.24 193.6 70.62 180.22 70.62 163.77V122H68.62Z" fill="black"/>
<path d="M16.0455 216.411C16.0455 214.209 14.4368 212.678 12.0453 212.678L9 212.678L9 220.145L12.0453 220.145C14.4282 220.145 16.0455 218.613 16.0455 216.411ZM9.79144 219.465L9.79144 213.357L12.0023 213.357C13.9895 213.357 15.2713 214.613 15.2713 216.411C15.2713 218.209 13.9895 219.465 12.0023 219.465L9.79144 219.465Z" fill="black"/>
<path d="M22.8675 219.465L22.8675 216.686L26.73 216.686L26.73 216.015L22.8675 216.015L22.8675 213.357L27.2032 213.357L27.2032 212.678L22.076 212.678L22.076 220.145L27.358 220.145L27.358 219.465L22.8675 219.465Z" fill="black"/>
<path d="M32.9495 214.664C32.9495 217.426 37.5518 216.17 37.5518 218.217C37.5518 218.957 36.941 219.542 35.5474 219.542C34.5667 219.542 33.6119 219.155 33.0785 218.639L32.7688 219.25C33.328 219.826 34.4205 220.222 35.5474 220.222C37.4572 220.222 38.3347 219.284 38.3347 218.183C38.3347 215.464 33.7323 216.703 33.7323 214.647C33.7323 213.899 34.3431 213.288 35.7023 213.288C36.3647 213.288 37.1131 213.494 37.7497 213.907L38.0164 213.279C37.4228 212.866 36.5453 212.617 35.7023 212.617C33.8011 212.608 32.9495 213.563 32.9495 214.664Z" fill="black"/>
<path d="M44.3134 212.678L44.3134 220.145L45.1048 220.145L45.1048 212.678L44.3134 212.678Z" fill="black"/>
<path d="M51.1357 216.411C51.1357 218.596 52.8046 220.213 55.0757 220.213C56.108 220.213 57.1145 219.895 57.8199 219.267L57.8199 216.419L57.0629 216.419L57.0629 218.94C56.4865 219.353 55.8241 219.516 55.1101 219.516C53.2778 219.516 51.9186 218.191 51.9186 216.419C51.9186 214.638 53.2778 213.322 55.1187 213.322C55.9962 213.322 56.736 213.58 57.3726 214.2L57.8629 213.701C57.2006 212.987 56.2199 212.625 55.0843 212.625C52.8046 212.608 51.1357 214.226 51.1357 216.411Z" fill="black"/>
<path d="M65.1058 220.145L65.1058 214.088L69.906 220.145L70.5598 220.145L70.5598 212.678L69.777 212.678L69.777 218.742L64.9681 212.678L64.3143 212.678L64.3143 220.145L65.1058 220.145Z" fill="black"/>
</svg>
