<svg width="200" height="100" viewBox="0 0 200 100" fill="none" xmlns="http://www.w3.org/2000/svg">
<g clip-path="url(#clip0_73_474)">
<path d="M175.86 14V55.76C175.86 71.1 163.39 83.57 148.06 83.59V14.01H146.06V83.6H118.24V14.01H116.24V85.6H148.03C164.48 85.6 177.86 72.22 177.86 55.77V14H175.86Z" fill="black"/>
<path d="M84.61 14H23V85.58H25V16H84.61V14Z" fill="black"/>
<path d="M84.6102 23.9399H32.9302V25.9399H84.6102V23.9399Z" fill="black"/>
<path d="M59.9102 70.4299L84.5902 55.4199L83.5502 53.7099L58.8502 68.7299C56.2802 64.3199 54.8002 59.2099 54.8002 53.7499H52.8002C52.8002 59.5899 54.3902 65.0599 57.1402 69.7699L34.9302 83.2699V35.8799H84.6102V33.8799H32.9302V35.0699V35.8799V85.5799H34.9802L58.2002 71.4699C63.9202 79.9799 73.6302 85.5899 84.6302 85.5899V83.5899C74.3602 83.5799 65.2802 78.3599 59.9102 70.4299Z" fill="black"/>
<path d="M100.38 22.19C102.94 22.19 104.72 20.32 104.72 17.54V14H96.04V17.54C96.04 20.31 97.82 22.19 100.38 22.19ZM96.83 14.92H103.93V17.49C103.93 19.8 102.47 21.29 100.38 21.29C98.29 21.29 96.83 19.8 96.83 17.49V14.92Z" fill="black"/>
<path d="M96.83 30.12H100.06V34.61H100.84V30.12H103.93V35.16H104.72V29.2H96.04V35.34H96.83V30.12Z" fill="black"/>
<path d="M102.41 41.8399C99.2002 41.8399 100.66 47.1899 98.2802 47.1899C97.4202 47.1899 96.7402 46.4799 96.7402 44.8599C96.7402 43.7199 97.1902 42.6099 97.7902 41.9899L97.0802 41.6299C96.4102 42.2799 95.9502 43.5499 95.9502 44.8599C95.9502 47.0799 97.0402 48.0999 98.3202 48.0999C101.48 48.0999 100.04 42.7499 102.43 42.7499C103.3 42.7499 104.01 43.4599 104.01 45.0399C104.01 45.8099 103.77 46.6799 103.29 47.4199L104.02 47.7299C104.5 47.0399 104.79 46.0199 104.79 45.0399C104.8 42.8299 103.69 41.8399 102.41 41.8399Z" fill="black"/>
<path d="M104.72 55.05H96.04V55.9701H104.72V55.05Z" fill="black"/>
<path d="M100.38 62.98C97.84 62.98 95.96 64.92 95.96 67.56C95.96 68.76 96.33 69.93 97.06 70.75H100.37V69.87H97.44C96.96 69.2 96.77 68.43 96.77 67.6C96.77 65.47 98.31 63.89 100.37 63.89C102.44 63.89 103.97 65.47 103.97 67.61C103.97 68.63 103.67 69.49 102.95 70.23L103.53 70.8C104.36 70.03 104.78 68.89 104.78 67.57C104.8 64.92 102.92 62.98 100.38 62.98Z" fill="black"/>
<path d="M96.04 79.22H103.08L96.04 84.8V85.56H104.72V84.65H97.67L104.72 79.06V78.3H96.04V79.22Z" fill="black"/>
</g>
<defs>
<clipPath id="clip0_73_474">
<rect width="154.86" height="71.6" fill="white" transform="translate(23 14)"/>
</clipPath>
</defs>
</svg>
