<svg width="164" height="40" viewBox="0 0 164 40" fill="none" xmlns="http://www.w3.org/2000/svg">
  <rect x="0.5" y="0.5" width="39" height="39" stroke="#1D1A17"/>
  <path d="M12.4 12.8L18.1 20L12.1 27.2H14.7L19.4 21.4L24.1 27.2H26.9L20.7 19.8L26.5 12.8H23.9L19.5 18.3L15.1 12.8H12.4Z" fill="#1D1A17"/>
  <path d="M29.5 12.8H22.1V15H28.8C30.3 15 31.2 15.7 31.2 16.9C31.2 18.1 30.2 18.9 28.6 18.9H26.7V21H28.9C30.8 21 31.9 21.8 31.9 23.1C31.9 24.4 30.8 25.2 29 25.2H22V27.2H29.2C32.4 27.2 34.4 25.7 34.4 23.2C34.4 21.5 33.3 20.3 31.6 19.8C32.9 19.3 33.7 18.2 33.7 16.7C33.7 14.4 32.1 12.8 29.5 12.8Z" fill="#1D1A17"/>
  <path d="M57 13.2H65.2C69.8 13.2 72.7 15.8 72.7 20C72.7 24.2 69.8 26.8 65.2 26.8H57V13.2ZM60 15.6V24.4H65.1C68 24.4 69.6 22.8 69.6 20C69.6 17.2 68 15.6 65.1 15.6H60Z" fill="#1D1A17"/>
  <path d="M78.2 13.2H89.6V15.6H81.2V18.7H88.8V21H81.2V24.4H89.8V26.8H78.2V13.2Z" fill="#1D1A17"/>
  <path d="M94.4 22.4H97.3C97.6 24 98.8 24.7 101.2 24.7C103.3 24.7 104.5 24.1 104.5 22.9C104.5 21.8 103.7 21.4 101.5 21L99.3 20.6C96.4 20.1 94.9 18.9 94.9 16.9C94.9 14.4 97.2 12.9 101 12.9C104.8 12.9 107.1 14.5 107.4 17.2H104.5C104.2 15.8 103 15.1 101 15.1C99 15.1 97.9 15.7 97.9 16.8C97.9 17.7 98.7 18.2 100.6 18.5L103 18.9C106.1 19.5 107.5 20.7 107.5 22.8C107.5 25.5 105.1 27.1 101.1 27.1C97 27.1 94.7 25.4 94.4 22.4Z" fill="#1D1A17"/>
  <path d="M113.1 13.2H116.1V26.8H113.1V13.2Z" fill="#1D1A17"/>
  <path d="M121.7 20C121.7 15.8 124.8 12.9 129.4 12.9C133.3 12.9 136 14.8 136.6 18H133.6C133.1 16.3 131.6 15.4 129.4 15.4C126.5 15.4 124.8 17.1 124.8 20C124.8 22.9 126.5 24.6 129.4 24.6C131.8 24.6 133.4 23.5 133.8 21.8H128.7V19.6H136.8V26.8H134.5L134.2 24.7C133.2 26.2 131.4 27.1 129.1 27.1C124.7 27.1 121.7 24.2 121.7 20Z" fill="#1D1A17"/>
  <path d="M142.7 13.2H145.7L154.1 22.8V13.2H157V26.8H154.4L145.6 16.8V26.8H142.7V13.2Z" fill="#1D1A17"/>
</svg>
